<svg width="211" height="211" viewBox="0 0 211 211" fill="none" xmlns="http://www.w3.org/2000/svg">
<g clip-path="url(#clip0_49_316)">
<path d="M32.8106 58.869C34.7528 58.869 36.3273 57.2946 36.3273 55.3524C36.3273 53.4102 34.7528 51.8357 32.8106 51.8357C30.8684 51.8357 29.2939 53.4102 29.2939 55.3524C29.2939 57.2946 30.8684 58.869 32.8106 58.869Z" fill="#383838"/>
<path d="M56.2667 58.869C58.2089 58.869 59.7833 57.2946 59.7833 55.3524C59.7833 53.4102 58.2089 51.8357 56.2667 51.8357C54.3245 51.8357 52.75 53.4102 52.75 55.3524C52.75 57.2946 54.3245 58.869 56.2667 58.869Z" fill="#383838"/>
<path d="M44.5562 58.869C46.4984 58.869 48.0729 57.2946 48.0729 55.3524C48.0729 53.4102 46.4984 51.8357 44.5562 51.8357C42.614 51.8357 41.0396 53.4102 41.0396 55.3524C41.0396 57.2946 42.614 58.869 44.5562 58.869Z" fill="#383838"/>
<path d="M70.3334 106.379L80.8834 95.8292C81.5456 95.167 81.9177 94.2688 81.9177 93.3323C81.9177 92.3958 81.5456 91.4977 80.8834 90.8355C80.2212 90.1733 79.3231 89.8013 78.3866 89.8013C77.4501 89.8013 76.552 90.1733 75.8898 90.8355L62.8078 103.953C62.1528 104.612 61.7852 105.503 61.7852 106.432C61.7852 107.361 62.1528 108.252 62.8078 108.911L75.8898 122.028C76.2167 122.358 76.6056 122.62 77.0342 122.798C77.4627 122.977 77.9224 123.069 78.3866 123.069C78.8509 123.069 79.3105 122.977 79.739 122.798C80.1676 122.62 80.5565 122.358 80.8834 122.028C81.5384 121.369 81.9061 120.478 81.9061 119.549C81.9061 118.62 81.5384 117.729 80.8834 117.07L70.3334 106.379Z" fill="#383838"/>
<path d="M120.692 121.958C121.351 122.613 122.242 122.981 123.171 122.981C124.1 122.981 124.992 122.613 125.65 121.958L138.768 109.017C139.423 108.358 139.79 107.466 139.79 106.537C139.79 105.608 139.423 104.717 138.768 104.058L125.65 90.941C124.988 90.2835 124.092 89.9159 123.159 89.9192C122.226 89.9225 121.332 90.2964 120.674 90.9586C120.017 91.6208 119.649 92.5171 119.653 93.4503C119.656 94.3835 120.03 95.2771 120.692 95.9347L131.242 106.485L120.692 117.035C120.048 117.692 119.687 118.576 119.687 119.496C119.687 120.417 120.048 121.301 120.692 121.958Z" fill="#383838"/>
<path d="M109.017 91.9608C108.615 91.7283 108.172 91.5775 107.712 91.517C107.252 91.4566 106.785 91.4878 106.337 91.6087C105.889 91.7296 105.47 91.938 105.103 92.2217C104.736 92.5055 104.428 92.859 104.199 93.262L91.2222 116.05C90.9678 116.45 90.7969 116.898 90.72 117.366C90.643 117.834 90.6615 118.313 90.7743 118.773C90.8872 119.234 91.092 119.667 91.3766 120.046C91.6611 120.426 92.0195 120.744 92.4301 120.981C92.8407 121.219 93.2951 121.37 93.766 121.428C94.2368 121.485 94.7143 121.446 95.1698 121.314C95.6253 121.182 96.0494 120.959 96.4165 120.659C96.7836 120.358 97.0862 119.987 97.3061 119.567L110.423 96.8841C110.669 96.4721 110.827 96.0142 110.889 95.5386C110.951 95.063 110.915 94.5798 110.783 94.1187C110.651 93.6575 110.427 93.2282 110.123 92.8571C109.819 92.486 109.443 92.181 109.017 91.9608Z" fill="#383838"/>
<path d="M196.441 140.667C196.233 140.665 196.031 140.6 195.862 140.481C195.692 140.361 195.563 140.193 195.491 139.998C194.092 136.317 192.109 132.886 189.619 129.835C189.501 129.665 189.437 129.462 189.437 129.255C189.437 129.048 189.501 128.845 189.619 128.675C190.69 126.818 190.98 124.613 190.426 122.542C189.872 120.472 188.519 118.706 186.665 117.632L184.027 116.05V51.8356C184.027 49.0376 182.916 46.3542 180.937 44.3757C178.959 42.3972 176.275 41.2856 173.477 41.2856H28.1333C25.3352 41.2856 22.6518 42.3972 20.6733 44.3757C18.6948 46.3542 17.5833 49.0376 17.5833 51.8356V140.948C17.5925 143.118 18.4588 145.197 19.9934 146.732C21.528 148.266 23.6068 149.133 25.7771 149.142H73.8499L70.3333 162.153H65.6561C62.2309 162.156 58.9064 163.313 56.22 165.438C53.5335 167.563 51.642 170.531 50.8509 173.864H42.1999C41.2672 173.864 40.3728 174.234 39.7133 174.894C39.0538 175.553 38.6833 176.448 38.6833 177.381C38.6833 178.313 39.0538 179.208 39.7133 179.867C40.3728 180.527 41.2672 180.897 42.1999 180.897H131.769C131.71 181.738 131.793 182.582 132.016 183.394C132.279 184.426 132.748 185.394 133.395 186.239C134.042 187.085 134.852 187.792 135.778 188.317L143.199 192.608C144.12 193.137 145.136 193.479 146.19 193.615C147.243 193.751 148.314 193.678 149.339 193.4C150.364 193.123 151.325 192.646 152.166 191.997C153.007 191.348 153.712 190.54 154.241 189.619C154.355 189.439 154.519 189.297 154.712 189.21C154.906 189.122 155.121 189.093 155.331 189.126C159.194 189.794 163.143 189.794 167.006 189.126C167.22 189.092 167.44 189.124 167.635 189.218C167.83 189.312 167.991 189.465 168.097 189.654C168.813 190.881 169.841 191.898 171.076 192.602C172.31 193.305 173.709 193.671 175.13 193.663C176.548 193.677 177.944 193.312 179.174 192.608L186.594 188.317C187.516 187.786 188.322 187.077 188.968 186.232C189.614 185.387 190.086 184.423 190.357 183.394C190.637 182.372 190.71 181.304 190.571 180.253C190.432 179.202 190.084 178.19 189.548 177.275C189.427 177.099 189.363 176.891 189.363 176.677C189.363 176.464 189.427 176.255 189.548 176.079C192.031 173.037 194.013 169.618 195.421 165.951C195.488 165.754 195.616 165.583 195.787 165.463C195.958 165.342 196.162 165.28 196.371 165.283C198.513 165.274 200.565 164.419 202.08 162.904C203.595 161.389 204.45 159.337 204.459 157.195V148.614C204.422 146.506 203.564 144.495 202.066 143.01C200.568 141.526 198.55 140.685 196.441 140.667ZM24.6166 51.8356C24.6166 50.903 24.9871 50.0085 25.6466 49.349C26.3061 48.6895 27.2006 48.319 28.1333 48.319H173.477C174.41 48.319 175.304 48.6895 175.964 49.349C176.623 50.0085 176.994 50.903 176.994 51.8356V62.3856H24.6166V51.8356ZM25.7771 142.108C25.6247 142.108 25.4738 142.078 25.333 142.02C25.1922 141.962 25.0643 141.876 24.9565 141.769C24.8487 141.661 24.7632 141.533 24.7049 141.392C24.6466 141.251 24.6166 141.1 24.6166 140.948V69.419H176.994V112.533C175.33 112.091 173.568 112.194 171.966 112.827C170.365 113.46 169.009 114.59 168.097 116.05C167.987 116.223 167.828 116.36 167.64 116.441C167.451 116.523 167.243 116.546 167.042 116.507C163.176 115.874 159.232 115.874 155.366 116.507C155.165 116.551 154.954 116.531 154.765 116.449C154.576 116.367 154.417 116.227 154.311 116.05C153.783 115.128 153.078 114.32 152.235 113.672C151.393 113.024 150.432 112.549 149.405 112.274C148.379 112 147.308 111.931 146.255 112.072C145.202 112.213 144.187 112.561 143.269 113.096L135.849 117.386C134.925 117.906 134.116 118.607 133.469 119.447C132.822 120.287 132.352 121.248 132.086 122.274C131.524 124.348 131.802 126.559 132.86 128.429C132.988 128.595 133.058 128.799 133.058 129.009C133.058 129.219 132.988 129.423 132.86 129.589C130.369 132.64 128.386 136.071 126.987 139.752C126.915 139.947 126.786 140.115 126.616 140.235C126.447 140.354 126.245 140.419 126.037 140.42C124.315 140.423 122.639 140.978 121.255 142.003L25.7771 142.108ZM119.567 162.153H77.3666L80.8833 149.142H117.808V157.195C117.831 158.997 118.449 160.74 119.567 162.153ZM65.6913 169.187H128.288C129.092 170.808 130.008 172.371 131.031 173.864H58.2711C58.935 172.467 59.9809 171.286 61.2878 170.458C62.5947 169.631 64.1091 169.19 65.6561 169.187H65.6913ZM197.496 157.195C197.496 157.475 197.385 157.743 197.187 157.941C196.989 158.139 196.721 158.25 196.441 158.25C194.803 158.254 193.204 158.753 191.855 159.682C190.506 160.611 189.469 161.926 188.88 163.455C187.756 166.42 186.165 169.186 184.168 171.648C183.138 172.921 182.516 174.474 182.384 176.106C182.253 177.737 182.617 179.371 183.429 180.792C183.486 180.913 183.515 181.045 183.515 181.179C183.515 181.312 183.486 181.444 183.429 181.565C183.399 181.705 183.339 181.837 183.254 181.952C183.169 182.067 183.061 182.163 182.937 182.234L175.622 186.383C175.5 186.451 175.366 186.494 175.227 186.51C175.088 186.525 174.947 186.513 174.813 186.474C174.679 186.435 174.554 186.369 174.445 186.281C174.337 186.193 174.247 186.084 174.18 185.961C173.349 184.544 172.107 183.412 170.619 182.715C169.131 182.019 167.467 181.789 165.846 182.058C162.75 182.585 159.587 182.585 156.492 182.058C154.867 181.793 153.2 182.027 151.712 182.73C150.223 183.434 148.984 184.573 148.157 185.996C148.011 186.232 147.781 186.404 147.513 186.475C147.245 186.547 146.96 186.514 146.715 186.383L139.295 182.093C139.171 182.022 139.063 181.926 138.978 181.811C138.893 181.696 138.833 181.564 138.803 181.425C138.746 181.304 138.717 181.172 138.717 181.038C138.717 180.904 138.746 180.772 138.803 180.651C139.606 179.227 139.965 177.596 139.833 175.966C139.701 174.337 139.085 172.784 138.064 171.508C136.049 169.051 134.446 166.284 133.317 163.314C132.727 161.826 131.705 160.548 130.382 159.645C129.06 158.743 127.498 158.257 125.897 158.25C125.617 158.25 125.348 158.139 125.151 157.941C124.953 157.743 124.842 157.475 124.842 157.195V148.614C124.837 148.474 124.861 148.335 124.912 148.205C124.963 148.075 125.041 147.956 125.14 147.857C125.239 147.758 125.357 147.681 125.487 147.63C125.617 147.578 125.757 147.554 125.897 147.559C127.53 147.553 129.123 147.052 130.466 146.123C131.809 145.194 132.84 143.881 133.422 142.355C134.543 139.381 136.147 136.612 138.17 134.161C139.191 132.884 139.807 131.332 139.938 129.702C140.07 128.073 139.711 126.441 138.908 125.017C138.851 124.89 138.821 124.753 138.821 124.613C138.821 124.474 138.851 124.336 138.908 124.209C138.937 124.073 138.996 123.945 139.081 123.835C139.167 123.726 139.276 123.637 139.401 123.576L146.821 119.285C146.993 119.237 147.176 119.237 147.348 119.285C147.524 119.288 147.697 119.334 147.85 119.42C148.004 119.506 148.134 119.629 148.227 119.778C149.058 121.198 150.298 122.334 151.785 123.037C153.272 123.74 154.938 123.977 156.562 123.716C159.658 123.189 162.82 123.189 165.916 123.716C167.551 123.937 169.215 123.659 170.69 122.919C172.164 122.178 173.381 121.01 174.18 119.567C174.249 119.451 174.34 119.349 174.448 119.269C174.557 119.188 174.68 119.13 174.81 119.097C174.941 119.065 175.077 119.058 175.211 119.078C175.344 119.099 175.472 119.145 175.587 119.215L183.007 123.505C183.132 123.566 183.241 123.655 183.327 123.765C183.412 123.875 183.471 124.002 183.5 124.138C183.557 124.265 183.586 124.403 183.586 124.543C183.586 124.682 183.557 124.82 183.5 124.947C182.69 126.363 182.328 127.99 182.459 129.616C182.591 131.241 183.211 132.789 184.238 134.055C186.236 136.53 187.827 139.308 188.95 142.284C189.505 143.839 190.517 145.188 191.855 146.155C193.192 147.122 194.791 147.661 196.441 147.7C196.581 147.695 196.72 147.719 196.85 147.77C196.981 147.822 197.099 147.899 197.198 147.998C197.297 148.097 197.374 148.215 197.426 148.346C197.477 148.476 197.501 148.615 197.496 148.755V157.195Z" fill="#383838"/>
<path d="M161.169 136.939C158.011 136.939 154.924 137.875 152.299 139.63C149.673 141.384 147.627 143.878 146.418 146.795C145.21 149.712 144.894 152.922 145.51 156.019C146.126 159.116 147.647 161.961 149.879 164.194C152.112 166.427 154.957 167.947 158.054 168.564C161.151 169.18 164.361 168.863 167.279 167.655C170.196 166.447 172.689 164.4 174.444 161.775C176.198 159.149 177.134 156.062 177.134 152.905C177.134 148.67 175.452 144.609 172.458 141.615C169.464 138.621 165.403 136.939 161.169 136.939ZM161.169 161.837C159.402 161.837 157.675 161.313 156.206 160.332C154.737 159.35 153.592 157.955 152.916 156.323C152.24 154.691 152.063 152.895 152.408 151.162C152.753 149.429 153.603 147.838 154.853 146.589C156.102 145.339 157.693 144.489 159.426 144.144C161.159 143.799 162.955 143.976 164.587 144.652C166.219 145.328 167.614 146.473 168.596 147.942C169.577 149.411 170.101 151.138 170.101 152.905C170.083 155.261 169.133 157.515 167.46 159.175C165.787 160.835 163.526 161.767 161.169 161.767V161.837Z" fill="#383838"/>
</g>
<defs>
<clipPath id="clip0_49_316">
<rect width="211" height="211" fill="white"/>
</clipPath>
</defs>
</svg>
