<svg width="505" height="384" viewBox="0 0 505 384" fill="none" xmlns="http://www.w3.org/2000/svg">
<g filter="url(#filter0_d_49_94)">
<path d="M247.694 371.774L18.5631 236.491C11.2704 232.39 5.01052 225.677 12.1246 221.296L242.084 88.8282C245.539 86.6884 250.779 85.2873 254.285 87.3252L494.814 226.824C502.107 231.052 503.42 242.873 496.089 247.114L277.935 371.595C273.346 374.252 268.142 375.666 262.838 375.697C257.535 375.728 252.314 374.376 247.694 371.774Z" fill="#FFC2A4"/>
<path d="M320.926 217.474L314.909 218.086L279.21 240.198C264.434 252.094 278.802 253.814 286.401 258.743C290.838 261.622 361.036 307.909 365.447 310.749L423.291 280.065C412.951 274.053 331.215 223.614 320.926 217.474Z" fill="url(#paint0_linear_49_94)"/>
<path d="M414.098 283.046C419.541 283.046 423.954 280.976 423.954 278.422C423.954 275.869 419.541 273.799 414.098 273.799C408.655 273.799 404.243 275.869 404.243 278.422C404.243 280.976 408.655 283.046 414.098 283.046Z" fill="#484887"/>
<path d="M423.954 272.55V278.422H404.243V272.55" fill="#484887"/>
<path d="M414.098 277.174C419.541 277.174 423.954 275.104 423.954 272.55C423.954 269.997 419.541 267.927 414.098 267.927C408.655 267.927 404.243 269.997 404.243 272.55C404.243 275.104 408.655 277.174 414.098 277.174Z" fill="#6969BC"/>
<path d="M416.661 187.44V270.474C416.661 270.474 414.481 274.219 411.561 270.474V184.638C411.561 184.638 411.995 182.205 416.661 187.44Z" fill="#484887"/>
<path d="M317.471 232.237C322.914 232.237 327.326 230.167 327.326 227.613C327.326 225.06 322.914 222.99 317.471 222.99C312.028 222.99 307.616 225.06 307.616 227.613C307.616 230.167 312.028 232.237 317.471 232.237Z" fill="#484887"/>
<path d="M327.339 221.729V227.613H307.616V221.729" fill="#484887"/>
<path d="M317.471 226.352C322.914 226.352 327.326 224.282 327.326 221.729C327.326 219.175 322.914 217.105 317.471 217.105C312.028 217.105 307.616 219.175 307.616 221.729C307.616 224.282 312.028 226.352 317.471 226.352Z" fill="#6969BC"/>
<path d="M320.008 136.631V219.665C320.008 219.665 317.828 223.41 314.908 219.665V133.829C314.908 133.829 315.367 131.396 320.008 136.631Z" fill="#484887"/>
<path d="M429.219 117.474L310.51 50.3617C309.557 49.8224 308.479 49.5423 307.384 49.5495C306.288 49.5566 305.214 49.8508 304.268 50.4026C303.322 50.9544 302.538 51.7444 301.993 52.6939C301.449 53.6434 301.163 54.719 301.165 55.8132V128.696C301.163 129.804 301.456 130.893 302.014 131.851C302.572 132.809 303.374 133.601 304.339 134.147L423.048 201.26C424.001 201.799 425.079 202.079 426.175 202.072C427.27 202.065 428.344 201.771 429.29 201.219C430.236 200.667 431.021 199.877 431.565 198.928C432.11 197.978 432.395 196.903 432.394 195.808V122.913C432.393 121.807 432.099 120.721 431.541 119.765C430.984 118.81 430.182 118.019 429.219 117.474Z" fill="#FFC000"/>
<path d="M317.458 125.766C317.458 125.766 326.23 92.2928 341.682 101.043C357.134 109.794 349.829 144.783 360.704 144.184C371.579 143.586 383.959 121.257 393.317 125.805C402.675 130.352 402.382 170.92 414.149 177.289" fill="white"/>
<path d="M318.466 81.6826L331.075 120.429L354.24 104.992L364.121 138.44L381.843 129.371L396.249 157.342L417.184 156.756" stroke="#42210B" stroke-width="0.76125" stroke-miterlimit="10"/>
<path d="M417.696 160.955C419.164 160.774 420.123 158.755 419.838 156.444C419.553 154.133 418.132 152.406 416.665 152.586C415.197 152.767 414.238 154.787 414.523 157.098C414.808 159.409 416.229 161.136 417.696 160.955Z" fill="#89562C"/>
<path d="M318.974 85.8753C320.442 85.6948 321.401 83.675 321.116 81.364C320.831 79.053 319.411 77.3259 317.943 77.5065C316.475 77.687 315.517 79.7068 315.801 82.0178C316.086 84.3288 317.507 86.0559 318.974 85.8753Z" fill="#89562C"/>
<path d="M97.4688 148.859C97.558 149.05 98.0425 150.859 98.4249 150.477C98.8074 150.094 100.809 150.961 100.809 150.961L106.393 143.866L105.654 141.548H100.618" fill="#FFC000"/>
<path d="M124.433 118.302L124.943 116.455L130.808 113.258V103.272C130.808 103.081 125.135 106.609 125.135 106.609L124.943 106.049C124.626 104.52 124.043 103.059 123.222 101.731L127.353 94.0887L122.049 90.1019L118.122 97.9608C116.693 97.6299 115.204 97.6562 113.788 98.0372V90.5223L106.253 94.6873V102.584C104.78 103.995 103.439 105.539 102.25 107.195L97.7236 104.304L92.6238 114.022L96.6781 117.245L96.3339 118.875C95.8031 120.597 95.3774 122.35 95.0589 124.123L89.0413 127.435V137.383L94.7785 133.969C95.0263 135.779 95.6565 137.516 96.6271 139.064L92.3306 146.35L97.7746 150.464L101.599 142.962H106.355V150.464L113.469 146.146V138.771C115.113 137.162 116.563 135.366 117.791 133.421L122.1 136.364L127.302 126.441L123.031 123.219L123.452 121.729C123.834 120.569 124.166 119.398 124.433 118.302Z" fill="#FFC000"/>
<path d="M138.05 107.425L131.407 103.412L129.75 105.871L132.325 111.233" fill="#FFC000"/>
<path d="M129.368 140.491L124.446 138.453V135.485" fill="#FFC000"/>
<path d="M113.558 154.629L106.342 150.477L108.178 145.025L114.668 146.923L113.558 154.629Z" fill="#FFC000"/>
<path d="M122.049 90.1147L129.265 94.2671L125.3 102.151L120.978 102.228L119.971 94.2671L122.049 90.1147Z" fill="#FFC000"/>
<path d="M120.649 125.692C121.78 122.818 121.341 119.956 119.67 119.3C117.999 118.644 115.728 120.442 114.598 123.317C113.467 126.191 113.906 129.053 115.577 129.709C117.248 130.365 119.519 128.567 120.649 125.692Z" fill="#FFC000"/>
<path d="M106.253 94.6874L113.469 98.8398L120.978 94.6747L113.75 90.5223L106.253 94.6874Z" fill="#FFC000"/>
<path d="M104.927 108.456L97.7109 104.291L92.5984 114.023L99.8145 118.175L104.927 108.456Z" fill="#FFC000"/>
<path d="M92.3179 146.362L99.534 150.515L104.978 154.629L97.7618 150.477L92.3179 146.362Z" fill="#FFC000"/>
<path opacity="0.44" d="M97.4688 148.859C97.558 149.05 98.0425 150.859 98.4249 150.477C98.8074 150.094 100.809 150.961 100.809 150.961L106.393 143.866L105.654 141.548H100.618" fill="#053855"/>
<path d="M124.433 118.302L124.943 116.455L130.808 113.258V103.272C130.808 103.081 125.135 106.609 125.135 106.609L124.943 106.049C124.626 104.52 124.043 103.059 123.222 101.731L127.353 94.0887L122.049 90.1019L118.122 97.9608C116.693 97.6299 115.204 97.6562 113.788 98.0372V90.5223L106.253 94.6873V102.584C104.78 103.995 103.439 105.539 102.25 107.195L97.7236 104.304L92.6238 114.022L96.6781 117.245L96.3339 118.875C95.8031 120.597 95.3774 122.35 95.0589 124.123L89.0413 127.435V137.383L94.7785 133.969C95.0263 135.779 95.6565 137.516 96.6271 139.064L92.3306 146.35L97.7746 150.464L101.599 142.962H106.355V150.464L113.469 146.146V138.771C115.113 137.162 116.563 135.366 117.791 133.421L122.1 136.364L127.302 126.441L123.031 123.219L123.452 121.729C123.834 120.569 124.166 119.398 124.433 118.302Z" fill="#FFC000"/>
<path opacity="0.44" d="M138.05 107.425L131.407 103.412L129.75 105.871L132.325 111.233" fill="#053855"/>
<path d="M129.368 140.491L124.446 138.453V135.485" fill="#FFC000"/>
<path d="M113.558 154.629L106.342 150.477L108.178 145.025L114.668 146.923L113.558 154.629Z" fill="#FFC000"/>
<path d="M122.049 90.1147L129.265 94.2671L125.3 102.151L120.978 102.228L119.971 94.2671L122.049 90.1147Z" fill="#FFC000"/>
<path d="M120.649 125.692C121.78 122.818 121.341 119.956 119.67 119.3C117.999 118.644 115.728 120.442 114.598 123.317C113.467 126.191 113.906 129.053 115.577 129.709C117.248 130.365 119.519 128.567 120.649 125.692Z" fill="#FFC000"/>
<path d="M104.927 108.456L97.7109 104.291L92.5984 114.023L99.8145 118.175L104.927 108.456Z" fill="#FFC000"/>
<path d="M92.3179 146.362L99.534 150.515L104.978 154.629L97.7618 150.477L92.3179 146.362Z" fill="#FFC000"/>
<path opacity="0.44" d="M124.433 118.302L124.943 116.455L130.808 113.258V103.272C130.808 103.081 125.135 106.609 125.135 106.609L124.943 106.049C124.626 104.52 124.043 103.059 123.222 101.731L127.353 94.0887L122.049 90.1019L118.122 97.9608C116.693 97.6299 115.204 97.6562 113.788 98.0372V90.5223L106.253 94.6873V102.584C104.78 103.995 103.439 105.539 102.25 107.195L97.7236 104.304L92.6238 114.022L96.6781 117.245L96.3339 118.875C95.8031 120.597 95.3774 122.35 95.0589 124.123L89.0413 127.435V137.383L94.7785 133.969C95.0263 135.779 95.6565 137.516 96.6271 139.064L92.3306 146.35L97.7746 150.464L101.599 142.962H106.355V150.464L113.469 146.146V138.771C115.113 137.162 116.563 135.366 117.791 133.421L122.1 136.364L127.302 126.441L123.031 123.219L123.452 121.729C123.834 120.569 124.166 119.398 124.433 118.302Z" fill="#053855"/>
<path opacity="0.1" d="M129.368 140.491L124.446 138.453V135.485" fill="#053855"/>
<path opacity="0.1" d="M113.558 154.629L106.342 150.477L108.178 145.025L114.668 146.923L113.558 154.629Z" fill="#053855"/>
<path opacity="0.1" d="M120.649 125.692C121.78 122.818 121.341 119.956 119.67 119.3C117.999 118.644 115.728 120.442 114.598 123.317C113.467 126.191 113.906 129.053 115.577 129.709C117.248 130.365 119.519 128.567 120.649 125.692Z" fill="#053855"/>
<path opacity="0.1" d="M104.927 108.456L97.7109 104.291L92.5984 114.023L99.8145 118.175L104.927 108.456Z" fill="#053855"/>
<path opacity="0.1" d="M92.3179 146.362L99.534 150.515L104.978 154.629L97.7618 150.477L92.3179 146.362Z" fill="#053855"/>
<path opacity="0.1" d="M129.368 140.491L124.446 138.453V135.485" fill="#053855"/>
<path opacity="0.44" d="M113.558 154.629L106.342 150.477L108.178 145.025L114.668 146.923L113.558 154.629Z" fill="#053855"/>
<path d="M131.65 122.455L132.172 120.608L138.037 117.411V107.425C138.037 107.234 132.363 110.762 132.363 110.762L132.096 110.201C131.778 108.673 131.196 107.212 130.375 105.883L134.505 98.241L129.253 94.2543L125.326 102.113C123.897 101.782 122.408 101.809 120.991 102.19V94.6746L113.469 98.8397V106.737C111.996 108.148 110.656 109.691 109.466 111.348L104.927 108.456L99.8272 118.175L103.881 121.397L103.537 123.028C103.007 124.75 102.581 126.502 102.262 128.275L96.2446 131.587V141.535L101.995 138.121C102.242 139.931 102.873 141.668 103.843 143.216L99.5467 150.502L104.991 154.616L108.815 147.114H113.571V154.616L120.736 150.247V142.872C122.38 141.263 123.83 139.468 125.058 137.523L129.367 140.465L134.569 130.543L130.247 127.358L130.668 125.868C131.05 124.735 131.382 123.588 131.65 122.455Z" fill="#FFC000"/>
<path opacity="0.44" d="M120.649 125.692C121.78 122.818 121.341 119.956 119.67 119.3C117.999 118.644 115.728 120.442 114.598 123.317C113.467 126.191 113.906 129.053 115.577 129.709C117.248 130.365 119.519 128.567 120.649 125.692Z" fill="#053855"/>
<path opacity="0.44" d="M92.3179 146.362L99.534 150.515L104.978 154.629L97.7618 150.477L92.3179 146.362Z" fill="#053855"/>
<path d="M106.253 94.6874L113.469 98.8398L120.978 94.6747L113.75 90.5223L106.253 94.6874Z" fill="#FFC000"/>
<path opacity="0.44" d="M106.253 94.6619L113.444 98.8398L120.978 94.7129L113.775 90.5223L106.253 94.6619Z" fill="#053855"/>
<path d="M89.0286 127.435L96.2447 131.6V141.548L89.0286 137.383V127.435Z" fill="#FFC000"/>
<path opacity="0.44" d="M89.0286 127.435L96.2447 131.6V141.548L89.0286 137.383V127.435Z" fill="#053855"/>
<path d="M231.515 17.4995L230.584 132.593C230.574 133.812 230.885 135.013 231.484 136.074C232.084 137.136 232.952 138.022 234.001 138.644L285.598 169.213C286.237 169.597 286.967 169.804 287.713 169.813C288.459 169.823 289.194 169.633 289.843 169.265C290.492 168.897 291.031 168.363 291.405 167.718C291.779 167.074 291.975 166.341 291.972 165.596V49.4318C291.973 48.186 291.646 46.9619 291.024 45.8821C290.402 44.8023 289.507 43.9049 288.428 43.2798L237.852 13.9841C237.22 13.6138 236.504 13.4144 235.772 13.4056C235.04 13.3968 234.318 13.5789 233.678 13.9339C233.039 14.2889 232.502 14.8045 232.123 15.4298C231.744 16.0552 231.534 16.7686 231.515 17.4995Z" fill="#FFC000"/>
<path d="M279.376 95.8847V140.134L270.197 134.772L270.107 90.535L279.376 95.8847Z" fill="#5FAD00"/>
<path d="M263.95 79.5427L264.115 131.549L254.49 125.97V74.2058L263.95 79.5427Z" fill="#F8997C"/>
<path d="M248.408 65.4808L248.561 122.862L239.993 117.895V60.3605L248.408 65.4808Z" fill="white"/>
<path d="M278.573 145.56C278.579 145.935 278.485 146.306 278.301 146.633C278.117 146.96 277.849 147.233 277.524 147.422C277.199 147.611 276.83 147.711 276.454 147.71C276.079 147.71 275.71 147.61 275.385 147.42L235.952 124.938C235.627 124.754 235.357 124.487 235.169 124.165C234.981 123.843 234.882 123.477 234.881 123.104C234.882 122.735 234.979 122.372 235.164 122.052C235.349 121.732 235.615 121.465 235.935 121.28C236.254 121.094 236.617 120.996 236.987 120.994C237.357 120.992 237.721 121.087 238.043 121.27L277.502 143.726C277.826 143.91 278.096 144.177 278.285 144.499C278.473 144.821 278.572 145.187 278.573 145.56Z" fill="#FFE427"/>
<path d="M287.166 59.1886V75.1484C287.165 75.5414 287.061 75.9273 286.863 76.2674C286.666 76.6074 286.383 76.8897 286.042 77.0858C285.701 77.2819 285.314 77.385 284.921 77.3848C284.527 77.3846 284.141 77.281 283.8 77.0845L240.389 52.0303C240.048 51.834 239.765 51.5518 239.569 51.2121C239.372 50.8723 239.268 50.4868 239.267 50.0942V34.1472C239.268 33.7541 239.372 33.3682 239.569 33.0282C239.767 32.6881 240.05 32.4059 240.391 32.2098C240.732 32.0136 241.118 31.9105 241.512 31.9108C241.905 31.911 242.292 32.0146 242.632 32.2111L286.057 57.2526C286.395 57.4505 286.675 57.7333 286.869 58.073C287.064 58.4126 287.166 58.7973 287.166 59.1886Z" fill="#FFE427"/>
<path d="M279.591 69.9151C282.571 68.9702 284.028 65.1875 282.846 61.4663C281.664 57.745 278.29 55.4944 275.31 56.4393C272.33 57.3843 270.873 61.1669 272.055 64.8882C273.238 68.6094 276.612 70.86 279.591 69.9151Z" fill="white"/>
<path d="M270.592 53.3295L245.195 39.1529C244.124 38.5543 243.155 40.1974 244.226 40.8088L269.61 55.0108C270.681 55.6095 271.65 53.9664 270.579 53.355L270.592 53.3295Z" fill="#7F47DD"/>
<path d="M269.636 59.5326L253.865 50.7057C252.794 50.107 251.825 51.7501 252.896 52.3615L268.667 61.1884C269.738 61.7871 270.707 60.144 269.636 59.5326Z" fill="#7F47DD"/>
<path d="M136.915 89.2231C136.992 89.3759 137.374 90.8025 137.667 90.4968C137.96 90.1911 139.554 90.8789 139.554 90.8789L143.991 85.2491L143.404 83.4149H139.414" fill="#FFC000"/>
<path d="M158.334 64.9459L158.755 63.4811L163.421 60.9336V53.0111C163.421 52.8582 158.908 55.6604 158.908 55.6604L158.691 55.2146C158.439 54.0019 157.978 52.8425 157.327 51.7883L160.642 45.7381L156.473 42.5665L153.349 48.8078C152.219 48.5257 151.037 48.5257 149.907 48.8078V42.885L143.94 46.1839V52.4506C142.767 53.5728 141.7 54.8008 140.753 56.119L137.157 53.8263L133.09 61.545L136.303 64.0925L136.023 65.3662C135.607 66.7374 135.275 68.1326 135.028 69.544L130.209 72.2698V80.1669L134.773 77.3647C134.968 78.8038 135.467 80.1848 136.239 81.4152L132.823 87.2106L137.145 90.4841L140.243 84.5485H144.068V90.5096L149.754 87.045V81.1859C151.059 79.9059 152.21 78.4782 153.183 76.9316L156.613 79.2753L160.642 71.3909L157.212 68.8435L157.556 67.6589C157.862 66.7546 158.092 65.9012 158.334 64.9459Z" fill="#FFC000"/>
<path d="M169.145 56.31L163.88 53.1257L162.554 55.0745L164.594 59.3415" fill="#FFC000"/>
<path d="M162.248 82.5742L158.347 80.9566V78.6002" fill="#FFC000"/>
<path d="M149.703 93.8085L143.965 90.5095L145.419 86.1788L150.582 87.6946L149.703 93.8085Z" fill="#FFC000"/>
<path d="M156.447 42.5665L162.171 45.8655L159.022 52.1322L155.593 52.1832L154.79 45.8655L156.447 42.5665Z" fill="#FFC000"/>
<path d="M155.331 70.8244C156.23 68.5393 155.88 66.2636 154.549 65.7414C153.219 65.2192 151.412 66.6482 150.513 68.9333C149.615 71.2183 149.965 73.494 151.295 74.0162C152.625 74.5384 154.432 73.1094 155.331 70.8244Z" fill="#FFC000"/>
<path d="M143.889 46.1967L149.626 49.4956L155.593 46.1967L149.856 42.885L143.889 46.1967Z" fill="#FFC000"/>
<path d="M142.843 57.138L137.119 53.8263L133.052 61.5578L138.789 64.8568L142.843 57.138Z" fill="#FFC000"/>
<path d="M132.823 87.2361L138.56 90.535L142.882 93.8085L137.157 90.5096L132.823 87.2361Z" fill="#FFC000"/>
<path opacity="0.44" d="M136.915 89.2231C136.992 89.3759 137.374 90.8025 137.667 90.4968C137.96 90.1911 139.554 90.8789 139.554 90.8789L143.991 85.2491L143.404 83.4149H139.414" fill="#053855"/>
<path d="M158.334 64.9459L158.755 63.4811L163.421 60.9336V53.0111C163.421 52.8582 158.908 55.6604 158.908 55.6604L158.691 55.2146C158.439 54.0019 157.978 52.8425 157.327 51.7883L160.642 45.7381L156.473 42.5665L153.349 48.8078C152.219 48.5257 151.037 48.5257 149.907 48.8078V42.885L143.94 46.1839V52.4506C142.767 53.5728 141.7 54.8008 140.753 56.119L137.157 53.8263L133.09 61.545L136.303 64.0925L136.023 65.3662C135.607 66.7374 135.275 68.1326 135.028 69.544L130.209 72.2698V80.1669L134.773 77.3647C134.968 78.8038 135.467 80.1848 136.239 81.4152L132.823 87.2106L137.145 90.4841L140.243 84.5485H144.068V90.5096L149.754 87.045V81.1859C151.059 79.9059 152.21 78.4782 153.183 76.9316L156.613 79.2753L160.642 71.3909L157.212 68.8435L157.556 67.6589C157.862 66.7546 158.092 65.9012 158.334 64.9459Z" fill="#FFC000"/>
<path opacity="0.44" d="M169.145 56.31L163.88 53.1257L162.554 55.0745L164.594 59.3415" fill="#053855"/>
<path d="M162.248 82.5742L158.347 80.9566V78.6002" fill="#FFC000"/>
<path d="M149.703 93.8085L143.965 90.5095L145.419 86.1788L150.582 87.6946L149.703 93.8085Z" fill="#FFC000"/>
<path d="M156.447 42.5665L162.171 45.8655L159.022 52.1322L155.593 52.1832L154.79 45.8655L156.447 42.5665Z" fill="#FFC000"/>
<path d="M155.331 70.8244C156.23 68.5393 155.88 66.2636 154.549 65.7414C153.219 65.2192 151.412 66.6482 150.513 68.9333C149.615 71.2183 149.965 73.494 151.295 74.0162C152.625 74.5384 154.432 73.1094 155.331 70.8244Z" fill="#FFC000"/>
<path d="M142.843 57.138L137.119 53.8263L133.052 61.5578L138.789 64.8568L142.843 57.138Z" fill="#FFC000"/>
<path d="M132.823 87.2361L138.56 90.535L142.882 93.8085L137.157 90.5096L132.823 87.2361Z" fill="#FFC000"/>
<path opacity="0.44" d="M158.334 64.9459L158.755 63.4811L163.421 60.9336V53.0111C163.421 52.8582 158.908 55.6604 158.908 55.6604L158.691 55.2146C158.439 54.0019 157.978 52.8425 157.327 51.7883L160.642 45.7381L156.473 42.5665L153.349 48.8078C152.219 48.5257 151.037 48.5257 149.907 48.8078V42.885L143.94 46.1839V52.4506C142.767 53.5728 141.7 54.8008 140.753 56.119L137.157 53.8263L133.09 61.545L136.303 64.0925L136.023 65.3662C135.607 66.7374 135.275 68.1326 135.028 69.544L130.209 72.2698V80.1669L134.773 77.3647C134.968 78.8038 135.467 80.1848 136.239 81.4152L132.823 87.2106L137.145 90.4841L140.243 84.5485H144.068V90.5096L149.754 87.045V81.1859C151.059 79.9059 152.21 78.4782 153.183 76.9316L156.613 79.2753L160.642 71.3909L157.212 68.8435L157.556 67.6589C157.862 66.7546 158.092 65.9012 158.334 64.9459Z" fill="#053855"/>
<path opacity="0.1" d="M162.248 82.5742L158.347 80.9566V78.6002" fill="#053855"/>
<path opacity="0.1" d="M149.703 93.8085L143.965 90.5095L145.419 86.1788L150.582 87.6946L149.703 93.8085Z" fill="#053855"/>
<path opacity="0.1" d="M155.331 70.8244C156.23 68.5393 155.88 66.2636 154.549 65.7414C153.219 65.2192 151.412 66.6482 150.513 68.9333C149.615 71.2183 149.965 73.494 151.295 74.0162C152.625 74.5384 154.432 73.1094 155.331 70.8244Z" fill="#053855"/>
<path opacity="0.1" d="M142.843 57.138L137.119 53.8263L133.052 61.5578L138.789 64.8568L142.843 57.138Z" fill="#053855"/>
<path opacity="0.1" d="M132.823 87.2361L138.56 90.535L142.882 93.8085L137.157 90.5096L132.823 87.2361Z" fill="#053855"/>
<path opacity="0.1" d="M162.248 82.5742L158.347 80.9566V78.6002" fill="#053855"/>
<path opacity="0.44" d="M149.703 93.8085L143.965 90.5095L145.419 86.1788L150.582 87.6946L149.703 93.8085Z" fill="#053855"/>
<path d="M164.071 68.2448L164.466 66.7928L169.133 64.2453V56.31C169.133 56.1572 164.619 58.9594 164.619 58.9594L164.403 58.5136C164.151 57.3009 163.689 56.1414 163.038 55.0872L166.328 49.0371L162.159 45.8655L159.035 52.1067C157.905 51.8247 156.723 51.8247 155.593 52.1067V46.1966L149.626 49.4956V55.7114C148.453 56.8336 147.386 58.0615 146.439 59.3797L142.792 57.1379L138.725 64.8567L141.938 67.4042L141.658 68.6779C141.242 70.0491 140.91 71.4443 140.663 72.8557L135.882 75.4923V83.3894L140.434 80.6764C140.628 82.1155 141.128 83.4965 141.9 84.7268L138.483 90.5223L142.805 93.7958L145.84 87.8347H149.664V93.7958L155.351 90.3312V84.4721C156.655 83.1921 157.806 81.7644 158.78 80.2179L162.21 82.5615L166.34 74.6771L162.911 72.1297L163.255 70.9451C163.599 70.0535 163.854 69.1492 164.071 68.2448Z" fill="#FFC000"/>
<path opacity="0.44" d="M155.331 70.8244C156.23 68.5393 155.88 66.2636 154.549 65.7414C153.219 65.2192 151.412 66.6482 150.513 68.9333C149.615 71.2183 149.965 73.494 151.295 74.0162C152.625 74.5384 154.432 73.1094 155.331 70.8244Z" fill="#053855"/>
<path opacity="0.44" d="M132.823 87.2361L138.56 90.535L142.882 93.8085L137.157 90.5096L132.823 87.2361Z" fill="#053855"/>
<path d="M143.889 46.1967L149.626 49.4956L155.593 46.1967L149.856 42.885L143.889 46.1967Z" fill="#FFC000"/>
<path opacity="0.44" d="M143.889 46.1712L149.613 49.4956L155.593 46.2094L149.868 42.8977L143.889 46.1712Z" fill="#053855"/>
<path d="M130.222 72.2062L135.946 75.5051V83.415L130.222 80.116V72.2062Z" fill="#FFC000"/>
<path opacity="0.44" d="M130.222 72.2062L135.946 75.5051V83.415L130.222 80.116V72.2062Z" fill="#053855"/>
<path d="M206.093 265.086C187.313 276.028 173.888 283.377 144.998 299.859C166.863 313.131 183.807 325.334 186.268 326.786L251.162 288.714C246.151 286.065 229.488 276.639 206.093 265.086Z" fill="url(#paint1_linear_49_94)"/>
<path d="M221.609 221.983C216.114 218.162 209.65 216.048 202.663 217.589C195.218 219.219 188.779 223.958 181.194 225.04C179.995 225.219 175.214 224.913 174.475 225.601C153.375 245.547 212.353 243.433 212.353 243.433C218.077 238.746 223.47 234.135 229.144 229.422C227.435 225.55 224.554 224.034 221.609 221.983Z" fill="#F8997C"/>
<path d="M193.79 250.897L191.699 311.081C191.622 313.361 195.167 313.361 195.243 311.081L197.334 250.897C197.474 248.617 193.93 248.617 193.79 250.897Z" fill="#F8997C"/>
<path d="M238.068 283.097C227.325 272.593 217.061 261.635 207.278 250.222C205.787 248.49 203.288 250.999 204.729 252.769C214.503 264.174 224.766 275.132 235.518 285.644C237.137 287.211 239.687 284.702 238.068 283.097Z" fill="#F8997C"/>
<path d="M181.538 245.331C173.2 261.057 165.346 277.021 157.977 293.223C157.034 295.286 160.093 297.044 161.037 295.019C168.406 278.817 176.26 262.853 184.598 247.127C185.669 245.102 182.609 243.306 181.538 245.331Z" fill="#F8997C"/>
<path d="M234.486 207.756C234.486 207.756 242.135 209.323 243.882 211.042C245.628 212.762 248.421 219.958 247.643 222.136C246.865 224.314 244.672 220.863 243.729 219.487C242.614 218.025 241.413 216.63 240.134 215.309C237.613 215.697 235.034 215.357 232.701 214.328" fill="#FCBF81"/>
<path d="M237.048 272.92C238.157 271.786 238.871 270.538 238.489 269.302C237.813 267.086 234.804 266.194 232.752 266.309C230.699 266.424 228.557 267.468 226.479 268.092C224.3 268.874 221.975 269.161 219.671 268.933C219.298 268.883 218.958 268.697 218.715 268.411C218.075 268.258 217.486 267.944 217.003 267.498C216.521 267.051 216.162 266.489 215.961 265.863L209.089 263.443C209.089 263.443 207.342 277.849 207.406 278.855C207.916 286.625 219.531 282.192 219.531 282.192C219.531 282.192 219.939 278.677 220.053 278.206C220.168 277.734 224.618 279.11 226.428 278.83C227.278 278.593 228.084 278.219 228.812 277.722C230.189 276.97 231.528 276.155 232.866 275.34C234.205 274.525 235.671 273.748 237.048 272.92Z" fill="#E55600"/>
<path d="M211.639 219.767C209.089 220.022 206.539 220.353 203.989 220.71C205.052 237.064 206.229 253.406 207.521 269.735C214.15 272.449 216.841 271.188 220.959 266.984C221.736 251.394 223.113 235.065 223.062 219.321C219.199 219.487 215.464 219.653 211.639 219.767Z" fill="#34323D"/>
<path d="M184.011 215.271C184.011 215.271 182.915 233.167 191.916 237.166C200.917 241.166 219.39 239.166 228.468 233.842C233.166 230.984 238.096 228.525 243.206 226.492C243.206 226.492 245.539 218.659 239.879 215.271C234.218 211.883 221.698 207.705 210.555 215.271" fill="#34323D"/>
<path d="M223.509 166.118C223.791 165.444 224.123 164.793 224.503 164.169C224.514 164.209 224.536 164.244 224.567 164.271C224.577 164.322 224.602 164.369 224.64 164.405C224.677 164.441 224.725 164.465 224.776 164.473C224.827 164.481 224.88 164.474 224.927 164.451C224.974 164.429 225.013 164.393 225.039 164.347L225.765 163.252C225.74 163.395 225.74 163.542 225.765 163.685C225.824 163.953 225.98 164.189 226.205 164.347C226.429 164.505 226.704 164.573 226.976 164.538C227.136 164.527 227.291 164.481 227.43 164.402C227.57 164.324 227.69 164.216 227.783 164.085C227.875 163.955 227.938 163.806 227.966 163.649C227.994 163.491 227.987 163.33 227.945 163.176L228.277 162.793C228.26 162.903 228.26 163.015 228.277 163.125C228.327 163.278 228.415 163.416 228.533 163.526C228.651 163.636 228.795 163.714 228.952 163.754C229.109 163.793 229.273 163.793 229.429 163.752C229.585 163.711 229.728 163.631 229.845 163.519C229.972 163.418 230.087 163.29 230.202 163.176C230.303 163.219 230.411 163.241 230.521 163.241C230.63 163.241 230.739 163.219 230.839 163.176C231.775 162.857 232.69 162.483 233.581 162.055C233.518 162.028 233.463 161.987 233.42 161.934C233.378 161.882 233.348 161.82 233.334 161.754C233.32 161.687 233.323 161.619 233.341 161.554C233.36 161.488 233.394 161.429 233.44 161.38C234.491 160.53 235.603 159.76 236.768 159.074C236.809 159.039 236.857 159.013 236.908 158.998L236.972 158.883C237.245 158 237.181 157.047 236.793 156.208C237.075 155.866 237.275 155.465 237.378 155.035C237.482 154.605 237.487 154.157 237.393 153.724C237.299 153.718 237.21 153.683 237.138 153.623C236.971 153.481 236.829 153.313 236.717 153.126C236.512 152.871 236.352 152.582 236.245 152.272C236.219 152.195 236.218 152.111 236.244 152.033C236.269 151.955 236.319 151.887 236.385 151.839C235.952 151.266 235.442 150.719 234.996 150.209C236.088 148.35 236.607 146.21 236.487 144.057C236.477 143.856 236.403 143.663 236.276 143.507C236.148 143.351 235.974 143.24 235.779 143.19C235.583 143.141 235.377 143.155 235.19 143.23C235.004 143.306 234.846 143.439 234.741 143.611C234.312 144.288 233.924 144.989 233.581 145.713C233.468 145.786 233.376 145.887 233.313 146.006C231.47 149.786 229.423 153.464 227.18 157.023C226.798 157.622 222.081 164.042 222.667 164.195C222.629 164.5 218.804 173.302 223.509 166.118ZM226.262 163.405C226.262 163.405 226.262 163.405 226.262 163.341C226.286 163.368 226.316 163.39 226.349 163.405C226.382 163.42 226.418 163.427 226.454 163.427C226.49 163.427 226.526 163.42 226.559 163.405C226.592 163.39 226.621 163.368 226.645 163.341C226.76 163.424 226.891 163.48 227.03 163.506C227.168 163.533 227.311 163.529 227.448 163.494C227.438 163.663 227.361 163.821 227.234 163.933C227.108 164.045 226.941 164.103 226.772 164.093C226.603 164.082 226.445 164.006 226.333 163.879C226.22 163.752 226.163 163.586 226.173 163.418L226.262 163.405Z" fill="#FCBF81"/>
<path d="M224.019 164.08C225.041 163.298 225.906 162.33 226.568 161.227C226.693 160.995 226.864 160.791 227.069 160.627C227.274 160.463 227.511 160.341 227.764 160.27C228.018 160.199 228.283 160.179 228.544 160.212C228.805 160.245 229.057 160.33 229.284 160.463C229.358 159.948 229.396 159.429 229.399 158.909C229.399 156.259 233.568 156.221 233.517 158.909C233.611 160.988 233.054 163.045 231.923 164.793C230.676 166.37 229.156 167.712 227.435 168.754C227.132 168.924 226.791 169.017 226.444 169.024C226.096 169.031 225.752 168.953 225.442 168.795C225.132 168.638 224.865 168.406 224.666 168.122C224.466 167.837 224.341 167.507 224.299 167.162L224.121 167.022C223.92 166.836 223.758 166.612 223.644 166.363C223.53 166.115 223.467 165.846 223.457 165.572C223.448 165.299 223.493 165.026 223.589 164.77C223.685 164.514 223.831 164.279 224.019 164.08Z" fill="#FCBF81"/>
<path d="M230.623 165.659C232.352 164.522 233.597 162.784 234.116 160.781C234.132 160.809 234.153 160.833 234.179 160.853C234.204 160.872 234.234 160.885 234.265 160.893C234.296 160.9 234.328 160.9 234.36 160.894C234.391 160.888 234.421 160.876 234.447 160.857L236.092 159.749C236.44 159.549 236.754 159.295 237.023 158.998C237.622 158.234 237.023 157.355 236.781 156.565C236.763 156.519 236.732 156.479 236.691 156.45L236.921 156.068C237.335 155.47 237.553 154.758 237.546 154.03C237.431 153.317 236.755 152.846 236.436 152.234C236.499 151.878 236.438 151.511 236.265 151.194C236.091 150.877 235.814 150.628 235.48 150.489C234.6 150.094 234.116 150.757 233.644 151.406C232.633 152.782 231.677 154.196 230.776 155.648C230.597 155.928 231.056 156.183 231.222 155.903C231.719 155.113 232.216 154.336 232.739 153.572C233.174 152.722 233.733 151.94 234.396 151.254C236.232 150.196 235.875 152.731 235.582 153.381C235.404 153.763 235.187 154.119 234.97 154.489L233.581 156.934C233.565 156.966 233.557 157.001 233.557 157.036C233.557 157.072 233.565 157.106 233.581 157.138C233.987 158.641 233.898 160.234 233.326 161.682C232.754 163.13 231.73 164.355 230.406 165.175C230.074 165.405 230.342 165.85 230.623 165.659ZM234.358 157.291C234.319 157.263 234.272 157.248 234.224 157.248C234.176 157.248 234.129 157.263 234.09 157.291V157.125C235.006 155.825 235.76 154.418 236.334 152.935C236.462 153.1 236.589 153.253 236.717 153.432C236.901 153.679 237.007 153.976 237.023 154.284C237.039 154.592 236.964 154.898 236.806 155.164C236.436 155.966 235.48 157.928 234.358 157.278V157.291ZM234.192 160.424C234.357 159.549 234.357 158.65 234.192 157.775C235.072 158.208 235.824 157.635 236.373 156.909C236.528 157.236 236.652 157.577 236.742 157.928C236.786 158.152 236.756 158.385 236.657 158.591C236.558 158.797 236.396 158.967 236.194 159.074C235.531 159.545 234.855 159.966 234.192 160.412V160.424Z" fill="#34323D"/>
<path d="M201.185 173.951C201.185 173.951 213.207 174.524 216.344 171.646C219.48 168.767 223.993 159.711 223.993 159.711C223.993 159.711 232.28 165.035 232.688 168.092C233.096 171.149 224.031 185.924 220.003 186.956" fill="#BA3E00"/>
<path d="M257.842 284.141C258.952 283.008 259.665 281.76 259.283 280.524C258.607 278.308 255.598 277.416 253.546 277.531C251.493 277.645 249.351 278.69 247.273 279.314C245.094 280.095 242.769 280.382 240.465 280.155C240.093 280.105 239.752 279.919 239.509 279.632C238.869 279.48 238.28 279.166 237.798 278.719C237.315 278.273 236.956 277.71 236.755 277.085L229.934 274.639C229.934 274.639 228.213 289.058 228.213 290.077C228.723 297.847 240.337 293.414 240.337 293.414C240.337 293.414 240.745 289.899 240.86 289.427C240.975 288.956 245.424 290.332 247.235 290.051C248.085 289.815 248.89 289.441 249.619 288.943C250.996 288.192 252.335 287.377 253.673 286.561C255.012 285.746 256.465 284.982 257.842 284.141Z" fill="#E55600"/>
<path d="M231.591 215.717C229.246 214.609 226.785 214.723 223.942 214.736C224.337 220.493 224.12 222.569 224.477 228.327L224.579 229.855C225.663 246.898 226.938 263.927 228.213 280.944C234.843 283.657 237.533 282.396 241.651 278.193C242.569 260.055 244.277 240.898 243.614 222.85C239.828 219.054 236.423 217.984 231.591 215.717Z" fill="#34323D"/>
<path d="M183.845 211.564C183.845 212.01 183.935 213.488 183.998 215.271C187.721 220.175 192.285 223.053 199.438 222.837C205.226 222.671 210.058 220.137 214.597 217.016C214.036 206.533 212.34 188.637 209.688 176.155C209.459 175.098 206.718 174.397 205.863 173.951C203.977 172.92 205.086 171.149 203.237 170.041C200.557 168.484 197.766 167.126 194.886 165.978H194.81C190.194 165.914 182.252 169.455 181.78 175.62C181.053 185.109 182.099 190.815 182.838 200.279C183.195 204.1 183.527 207.871 183.845 211.564Z" fill="#E55600"/>
<path d="M199.909 148.044C200.521 148.197 205.634 159.966 203.632 167.15C201.631 174.333 189.481 166.946 186.421 161.507C183.361 156.068 188.41 145.063 199.909 148.044Z" fill="#FCBF81"/>
<path d="M199.744 149.687C199.744 149.687 199.744 153.572 196.352 154.782C192.961 155.992 190.131 156.883 190.309 158.45C190.488 160.017 196.454 158.234 196.48 161.825C196.484 164.249 196.158 166.661 195.511 168.997C195.141 170.754 184.929 165.354 181.563 156.145C178.197 146.936 186.663 144.49 187.033 144.426C187.402 144.363 188.206 141.879 192.336 140.962C196.467 140.045 197.627 141.662 197.627 141.662C198.565 141.097 199.663 140.855 200.752 140.972C201.841 141.089 202.862 141.56 203.658 142.312C207.483 145.331 206.501 150.846 202.192 153.088L199.744 149.687Z" fill="#34323D"/>
<path d="M201.847 186.166C201.847 186.166 214.482 209.221 221.469 211.208C226.481 212.516 231.602 213.369 236.768 213.755C236.768 213.755 237.635 207.387 236.768 204.61C236.768 204.61 225.587 199.579 224.49 196.56C223.394 193.541 213.972 172.359 203.275 170.117" fill="#E55600"/>
<path d="M213.475 204.088C212.697 203.094 203.938 193.185 203.938 193.185L214.469 214.736L213.475 204.088Z" fill="#34323D"/>
<path d="M228.341 228.938C225.05 233.517 220.389 236.933 215.03 238.695C207.521 240.975 196.595 239.905 192.655 232.059C185.477 217.78 192.222 199.923 184.636 186.039C183.761 184.284 182.525 182.734 181.009 181.489C179.493 180.245 177.731 179.334 175.839 178.817C170.918 177.747 167.552 181.428 165.767 185.771C162.567 193.554 162.681 203.26 162.847 211.539C162.854 218.239 163.34 224.931 164.301 231.562C164.301 231.562 168.89 259.38 204.716 251.941C210.917 250.817 216.872 248.614 222.31 245.433C225.104 243.81 227.545 241.644 229.488 239.064C231.681 235.994 230.227 232.211 228.341 228.938Z" fill="#FFC000"/>
<path d="M48.0651 250.222L79.9384 227.664C70.6186 223.219 69.2545 218.748 61.9364 211.539C49.8372 219.118 33.3778 227.397 18.7034 234.899C28.6733 239.739 38.6688 244.452 48.0651 250.222Z" fill="url(#paint2_linear_49_94)"/>
<path d="M65.4042 205.935C59.7945 205.451 53.9298 203.756 49.7607 199.923V216.481C49.7607 221.048 51.5768 225.428 54.8094 228.658C58.042 231.887 62.4263 233.702 66.9978 233.702C71.5694 233.702 75.9537 231.887 79.1863 228.658C82.4189 225.428 84.2349 221.048 84.2349 216.481V199.642C78.3575 202.05 71.6768 206.482 65.4042 205.935Z" fill="#FFC000"/>
<path d="M66.9978 208.953C76.5176 208.953 84.2349 204.864 84.2349 199.821C84.2349 194.777 76.5176 190.688 66.9978 190.688C57.4781 190.688 49.7607 194.777 49.7607 199.821C49.7607 204.864 57.4781 208.953 66.9978 208.953Z" fill="#5ED18D"/>
<path d="M66.9976 201.375C66.9976 201.375 55.2683 199.655 52.1702 180.702C52.1702 180.702 62.1656 186.217 66.9976 201.375Z" fill="#5ED18D"/>
<path d="M68.719 198.955C68.719 198.955 55.2684 174.843 68.719 158.641C72.8289 171.765 72.8289 185.83 68.719 198.955Z" fill="#5ED18D"/>
<path d="M66.9976 183.797C66.9976 183.797 55.2683 182.078 52.1702 163.125C52.1702 163.125 62.1656 168.64 66.9976 183.797Z" fill="#5ED18D"/>
<path d="M68.4256 191.529C68.4256 191.529 65.4933 180.065 81.7869 169.875C81.7869 169.875 80.5502 181.224 68.4256 191.529Z" fill="#5ED18D"/>
<path d="M66.9978 208.953C76.5176 208.953 84.2349 204.864 84.2349 199.821C84.2349 194.777 76.5176 190.688 66.9978 190.688C57.4781 190.688 49.7607 194.777 49.7607 199.821C49.7607 204.864 57.4781 208.953 66.9978 208.953Z" fill="#146666"/>
<path d="M66.9976 201.375C66.9976 201.375 55.2683 199.655 52.1702 180.702C52.1702 180.702 62.1656 186.217 66.9976 201.375Z" fill="#5ED18D"/>
<path d="M68.719 198.955C68.719 198.955 55.2684 174.843 68.719 158.641C72.8289 171.765 72.8289 185.83 68.719 198.955Z" fill="#5ED18D"/>
<path d="M66.9976 183.797C66.9976 183.797 55.2683 182.078 52.1702 163.125C52.1702 163.125 62.1656 168.64 66.9976 183.797Z" fill="#5ED18D"/>
<path d="M68.4256 191.529C68.4256 191.529 65.4933 180.065 81.7869 169.875C81.7869 169.875 80.5502 181.224 68.4256 191.529Z" fill="#5ED18D"/>
</g>
<defs>
<filter id="filter0_d_49_94" x="-4" y="0" width="509" height="392" filterUnits="userSpaceOnUse" color-interpolation-filters="sRGB">
<feFlood flood-opacity="0" result="BackgroundImageFix"/>
<feColorMatrix in="SourceAlpha" type="matrix" values="0 0 0 0 0 0 0 0 0 0 0 0 0 0 0 0 0 0 127 0" result="hardAlpha"/>
<feOffset dy="4"/>
<feGaussianBlur stdDeviation="2"/>
<feComposite in2="hardAlpha" operator="out"/>
<feColorMatrix type="matrix" values="0 0 0 0 0 0 0 0 0 0 0 0 0 0 0 0 0 0 0.25 0"/>
<feBlend mode="normal" in2="BackgroundImageFix" result="effect1_dropShadow_49_94"/>
<feBlend mode="normal" in="SourceGraphic" in2="effect1_dropShadow_49_94" result="shape"/>
</filter>
<linearGradient id="paint0_linear_49_94" x1="339.349" y1="278.435" x2="367.689" y2="230.583" gradientUnits="userSpaceOnUse">
<stop stop-color="#FFC2A4"/>
<stop offset="1" stop-color="#DD6F31"/>
</linearGradient>
<linearGradient id="paint1_linear_49_94" x1="174.78" y1="315.564" x2="230.001" y2="265.073" gradientUnits="userSpaceOnUse">
<stop stop-color="#FFC2A4"/>
<stop offset="1" stop-color="#DD6F31"/>
</linearGradient>
<linearGradient id="paint2_linear_49_94" x1="40.1222" y1="237.88" x2="63.49" y2="221.593" gradientUnits="userSpaceOnUse">
<stop stop-color="#FFC2A4"/>
<stop offset="1" stop-color="#DD6F31"/>
</linearGradient>
</defs>
</svg>
