<svg width="141" height="141" viewBox="0 0 141 141" fill="none" xmlns="http://www.w3.org/2000/svg">
<path d="M123.375 0H17.625C7.88719 0 0 7.88719 0 17.625V96.9375C0 106.675 7.88719 114.562 17.625 114.562H44.0625V132.188H26.4375V141H114.562V132.188H96.9375V114.562H123.375C133.113 114.562 141 106.675 141 96.9375V17.625C141 7.88719 133.113 0 123.375 0ZM88.125 132.188H52.875V114.562H88.125V132.188ZM132.188 88.125H8.8125V17.625C8.8125 12.7605 12.7693 8.8125 17.625 8.8125H123.375C128.231 8.8125 132.188 12.7605 132.188 17.625V88.125Z" fill="#383838"/>
<path d="M87.3887 46.6721L72.6387 69.9525C72.41 70.3094 72.0928 70.6011 71.7181 70.7993C71.3433 70.9974 70.9237 71.0953 70.5 71.0834C70.2719 71.1193 70.0397 71.1193 69.8116 71.0834C69.2845 70.9301 68.8238 70.6048 68.503 70.1592C68.1822 69.7137 68.0198 69.1736 68.0416 68.625V53.875H57.7658C56.8856 53.8752 56.0215 53.639 55.2638 53.1912C54.506 52.7435 53.8823 52.1005 53.4579 51.3294C53.0334 50.5584 52.8237 49.6875 52.8507 48.8077C52.8777 47.928 53.1403 47.0716 53.6112 46.328L68.3612 23.0475C68.6369 22.5688 69.0657 22.1969 69.5786 21.9917C70.0915 21.7866 70.6585 21.7602 71.1883 21.9167C71.7155 22.07 72.1761 22.3953 72.4969 22.8409C72.8177 23.2864 72.9801 23.8265 72.9583 24.375V39.125H83.2341C84.1143 39.1249 84.9784 39.3611 85.7361 39.8088C86.4939 40.2566 87.1176 40.8996 87.542 41.6707C87.9665 42.4417 88.1762 43.3126 88.1492 44.1924C88.1222 45.0721 87.8596 45.9285 87.3887 46.6721Z" fill="#383838"/>
</svg>
