<svg width="83" height="83" viewBox="0 0 83 83" fill="none" xmlns="http://www.w3.org/2000/svg">
<path d="M62.25 55.6101C59.6217 55.6101 57.27 56.6476 55.4717 58.273L30.8137 43.9209C30.9867 43.1255 31.125 42.3301 31.125 41.5001C31.125 40.6701 30.9867 39.8747 30.8137 39.0792L55.195 24.8655C57.0625 26.5947 59.5179 27.6667 62.25 27.6667C67.9908 27.6667 72.625 23.0326 72.625 17.2917C72.625 11.5509 67.9908 6.91675 62.25 6.91675C56.5092 6.91675 51.875 11.5509 51.875 17.2917C51.875 18.1217 52.0133 18.9172 52.1862 19.7126L27.805 33.9263C25.9375 32.1972 23.4821 31.1251 20.75 31.1251C15.0092 31.1251 10.375 35.7592 10.375 41.5001C10.375 47.2409 15.0092 51.8751 20.75 51.8751C23.4821 51.8751 25.9375 50.803 27.805 49.0738L52.4283 63.4605C52.2554 64.1867 52.1517 64.9476 52.1517 65.7084C52.1517 71.2763 56.6821 75.8067 62.25 75.8067C67.8179 75.8067 72.3483 71.2763 72.3483 65.7084C72.3483 60.1405 67.8179 55.6101 62.25 55.6101ZM62.25 13.8334C64.1521 13.8334 65.7083 15.3897 65.7083 17.2917C65.7083 19.1938 64.1521 20.7501 62.25 20.7501C60.3479 20.7501 58.7917 19.1938 58.7917 17.2917C58.7917 15.3897 60.3479 13.8334 62.25 13.8334ZM20.75 44.9584C18.8479 44.9584 17.2917 43.4022 17.2917 41.5001C17.2917 39.598 18.8479 38.0417 20.75 38.0417C22.6521 38.0417 24.2083 39.598 24.2083 41.5001C24.2083 43.4022 22.6521 44.9584 20.75 44.9584ZM62.25 69.2359C60.3479 69.2359 58.7917 67.6797 58.7917 65.7776C58.7917 63.8755 60.3479 62.3192 62.25 62.3192C64.1521 62.3192 65.7083 63.8755 65.7083 65.7776C65.7083 67.6797 64.1521 69.2359 62.25 69.2359Z" fill="#383838"/>
</svg>
