<svg width="80" height="83" viewBox="0 0 80 83" fill="none" xmlns="http://www.w3.org/2000/svg">
<path d="M32.6207 26.6292C32.3003 26.9457 32.0459 27.3226 31.8723 27.7382C31.6987 28.1538 31.6093 28.5996 31.6093 29.05C31.6093 29.5004 31.6987 29.9462 31.8723 30.3618C32.0459 30.7774 32.3003 31.1543 32.6207 31.4708L39.1915 38.0417H7.37484C5.47275 38.0417 3.9165 39.5979 3.9165 41.5C3.9165 43.4021 5.47275 44.9583 7.37484 44.9583H39.1915L32.6207 51.5292C32.3003 51.8457 32.0459 52.2226 31.8723 52.6382C31.6987 53.0538 31.6093 53.4996 31.6093 53.95C31.6093 54.4004 31.6987 54.8462 31.8723 55.2618C32.0459 55.6774 32.3003 56.0543 32.6207 56.3708C33.9694 57.7196 36.1136 57.7196 37.4623 56.3708L49.8778 43.9554C50.1984 43.6355 50.4527 43.2554 50.6263 42.8371C50.7998 42.4187 50.8891 41.9702 50.8891 41.5173C50.8891 41.0644 50.7998 40.6159 50.6263 40.1975C50.4527 39.7791 50.1984 39.3991 49.8778 39.0792L37.4623 26.6292C37.1458 26.3088 36.7689 26.0544 36.3533 25.8808C35.9377 25.7072 35.4919 25.6178 35.0415 25.6178C34.5911 25.6178 34.1453 25.7072 33.7297 25.8808C33.3142 26.0544 32.9372 26.3088 32.6207 26.6292ZM66.1665 65.7083H41.9582C40.0561 65.7083 38.4998 67.2646 38.4998 69.1667C38.4998 71.0687 40.0561 72.625 41.9582 72.625H66.1665C69.9707 72.625 73.0832 69.5125 73.0832 65.7083V17.2917C73.0832 13.4875 69.9707 10.375 66.1665 10.375H41.9582C40.0561 10.375 38.4998 11.9312 38.4998 13.8333C38.4998 15.7354 40.0561 17.2917 41.9582 17.2917H66.1665V65.7083Z" fill="#383838"/>
</svg>
