<svg width="39" height="39" viewBox="0 0 39 39" fill="none" xmlns="http://www.w3.org/2000/svg">
<path fill-rule="evenodd" clip-rule="evenodd" d="M37.9672 6.71623C36.9515 4.10196 34.8832 2.03476 32.2649 1.02495C30.7511 0.456254 29.1506 0.151364 27.5307 0.116766C25.4451 0.0259481 24.7846 0 19.4959 0C14.2073 0 13.5294 0 11.4612 0.116766C9.84554 0.149202 8.24508 0.454092 6.73125 1.02495C4.11075 2.03476 2.0425 4.10196 1.02895 6.71623C0.459373 8.22987 0.154009 9.82568 0.121524 11.4431C0.0283983 13.5233 0.000244141 14.1828 0.000244141 19.4654C0.000244141 24.7458 0.000244141 25.4183 0.121524 27.4877C0.154009 29.1051 0.459373 30.7009 1.02895 32.2167C2.04467 34.8288 4.11292 36.896 6.73342 37.908C8.24075 38.4962 9.8412 38.8292 11.4655 38.8811C13.5511 38.9719 14.2116 39 19.5002 39C24.7889 39 25.4668 39 27.535 38.8811C29.1528 38.8486 30.7532 38.5416 32.2692 37.975C34.8876 36.9609 36.9558 34.8959 37.9715 32.2816C38.5411 30.768 38.8465 29.1722 38.879 27.5547C38.9721 25.4746 39.0002 24.815 39.0002 19.5324C39.0002 14.2498 39.0002 13.5795 38.879 11.5101C38.8508 9.87109 38.5476 8.24717 37.9672 6.71623ZM35.3294 27.3277C35.3142 28.5732 35.089 29.8079 34.6558 30.9777C33.9953 32.6795 32.6504 34.0245 30.9482 34.6775C29.7895 35.1078 28.568 35.3327 27.3314 35.35C25.274 35.4451 24.6936 35.4689 19.4179 35.4689C14.138 35.4689 13.5987 35.4689 11.5023 35.35C10.27 35.3348 9.04422 35.1078 7.88774 34.6775C6.179 34.0266 4.82543 32.6816 4.16489 30.9777C3.74042 29.823 3.51085 28.6013 3.49136 27.3688C3.39823 25.3145 3.37658 24.735 3.37658 19.4676C3.37658 14.1979 3.37658 13.6595 3.49136 11.5642C3.50652 10.3187 3.73175 9.08616 4.16489 7.91633C4.82543 6.21025 6.179 4.86743 7.88774 4.2144C9.04422 3.78626 10.27 3.55921 11.5023 3.54192C13.5619 3.44894 14.1401 3.42299 19.4179 3.42299C24.6958 3.42299 25.2372 3.42299 27.3314 3.54192C28.568 3.55705 29.7895 3.7841 30.9482 4.2144C32.6504 4.86959 33.9953 6.21457 34.6558 7.91633C35.0803 9.07102 35.3099 10.2927 35.3294 11.5253C35.4225 13.5817 35.4463 14.159 35.4463 19.4286C35.4463 24.6961 35.4463 25.2626 35.3532 27.3298H35.3294V27.3277ZM32.5002 8.9375C32.5002 10.2837 31.4089 11.375 30.0627 11.375C28.7165 11.375 27.6252 10.2837 27.6252 8.9375C27.6252 7.59131 28.7165 6.5 30.0627 6.5C31.4089 6.5 32.5002 7.59131 32.5002 8.9375ZM9.75024 19.4989C9.75024 14.1152 14.1138 9.75 19.5002 9.75C24.8825 9.75 29.2502 14.1152 29.2502 19.4989C29.2502 24.8848 24.8825 29.25 19.5002 29.25C14.1138 29.25 9.75024 24.8848 9.75024 19.4989ZM13.1647 19.5011C13.1647 22.9974 16.0014 25.8338 19.5002 25.8338C22.9991 25.8338 25.8315 22.9974 25.8315 19.5011C25.8315 16.0026 22.9991 13.1684 19.5002 13.1684C16.0014 13.1684 13.1647 16.0026 13.1647 19.5011Z" fill="#FFC000"/>
</svg>
