<svg width="39" height="39" viewBox="0 0 39 39" fill="none" xmlns="http://www.w3.org/2000/svg">
<path fill-rule="evenodd" clip-rule="evenodd" d="M6.12299 10.6674C8.60339 10.6674 10.6142 8.65661 10.6142 6.17622C10.6142 3.69582 8.60339 1.68506 6.12299 1.68506C3.6426 1.68506 1.63184 3.69582 1.63184 6.17622C1.63184 8.65661 3.6426 10.6674 6.12299 10.6674ZM14.8549 14.0706V38.9875H22.5913V26.6656C22.5913 23.4142 23.2029 20.2655 27.2343 20.2655C31.2103 20.2655 31.2595 23.9828 31.2595 26.8708V38.9896H39V25.3252C39 18.6131 37.5549 13.4548 29.7098 13.4548C25.9432 13.4548 23.4185 15.5218 22.386 17.478H22.2813V14.0706H14.8549ZM2.24763 14.0706H9.99631V38.9875H2.24763V14.0706Z" fill="#FFC000"/>
</svg>
