<svg width="39" height="39" viewBox="0 0 39 39" fill="none" xmlns="http://www.w3.org/2000/svg">
<path fill-rule="evenodd" clip-rule="evenodd" d="M34.3843 10.5799C34.4097 10.9211 34.4097 11.2604 34.4097 11.5997C34.4097 21.9835 26.5063 33.9487 12.0627 33.9487C7.6128 33.9487 3.4788 32.6597 0 30.4211C0.6318 30.4933 1.2402 30.5186 1.89735 30.5186C5.5692 30.5186 8.94855 29.2784 11.6493 27.1627C8.19585 27.0905 5.30205 24.8285 4.30365 21.7163C4.7892 21.7885 5.2767 21.8372 5.7876 21.8372C6.49155 21.8372 7.1994 21.7397 7.85655 21.5701C4.2549 20.8408 1.55805 17.6798 1.55805 13.8617V13.7642C2.6052 14.3473 3.82005 14.7119 5.10705 14.7607C2.9913 13.3528 1.60485 10.9445 1.60485 8.22035C1.60485 6.76175 1.9929 5.42405 2.67345 4.25795C6.5403 9.0218 12.3533 12.136 18.8701 12.4772C18.7493 11.8922 18.6751 11.2858 18.6751 10.6774C18.6751 6.34835 22.1774 2.82275 26.5298 2.82275C28.7917 2.82275 30.8334 3.77045 32.2686 5.30315C34.0431 4.9619 35.7435 4.30475 37.2528 3.4058C36.6698 5.22905 35.4276 6.76175 33.7994 7.7348C35.3808 7.5632 36.9135 7.1264 38.3214 6.518C37.2528 8.0741 35.917 9.46055 34.3843 10.5799Z" fill="#FFC000"/>
</svg>
